<?xml version="1.0" encoding="iso-8859-1"?>
<!-- Generator: Adobe Illustrator 19.0.0, SVG Export Plug-In . SVG Version: 6.00 Build 0)  -->
<svg version="1.1" id="Layer_1" xmlns="http://www.w3.org/2000/svg" xmlns:xlink="http://www.w3.org/1999/xlink" x="0px" y="0px"
	 viewBox="0 0 512 512" style="enable-background:new 0 0 512 512;" xml:space="preserve">
<path style="fill:#1D1D1F;" d="M5.055,506.574c-6.739-6.739-6.739-17.665,0-24.405l73.216-73.216c6.739-6.739,17.665-6.739,24.405,0
	c6.739,6.739,6.739,17.665,0,24.405l-73.216,73.216C22.721,513.313,11.794,513.313,5.055,506.574z"/>
<path style="fill:#57565C;" d="M375.538,248.326c0.118-4.725-1.707-9.291-5.048-12.632l-94.554-94.554
	c-3.341-3.341-7.908-5.167-12.632-5.048c-4.725,0.117-9.195,2.167-12.365,5.672L50.143,363.642
	c-15.992,17.671-15.316,44.713,1.534,61.564l34.746,34.746c16.852,16.852,43.894,17.526,61.564,1.535l221.879-200.795
	C373.37,257.52,375.42,253.051,375.538,248.326z"/>
<path style="fill:#3E3E42;" d="M375.538,248.326c0.118-4.725-1.707-9.291-5.048-12.632l-47.277-47.277L69.051,442.578l17.373,17.373
	c16.852,16.852,43.894,17.526,61.564,1.535l221.879-200.795C373.37,257.52,375.42,253.051,375.538,248.326z"/>
<path style="fill:#2D2E30;" d="M474.276,38.096c-50.298-50.298-132.139-50.298-182.439,0.001
	c-50.298,50.298-50.298,132.139,0,182.438s132.141,50.298,182.439,0.001C524.575,170.236,524.575,88.396,474.276,38.096z"/>
<path style="fill:#1D1D1F;" d="M474.277,38.097L291.838,220.535c50.298,50.298,132.141,50.298,182.438,0
	C524.575,170.236,524.575,88.396,474.277,38.097z"/>
<path style="fill:#797882;" d="M384.737,242.773L269.089,127.126c-10.109-10.109-26.499-10.109-36.608,0
	c-10.109,10.109-10.109,26.499,0,36.608l115.647,115.647c10.109,10.109,26.499,10.109,36.608,0
	C394.846,269.272,394.846,252.883,384.737,242.773z"/>
<path style="fill:#2D2E30;" d="M273.256,239.116c-6.739-6.739-17.665-6.739-24.405,0L184.3,303.668
	c-6.739,6.739-6.739,17.665,0,24.405c6.739,6.739,17.665,6.739,24.405,0l64.552-64.552
	C279.996,256.782,279.996,245.856,273.256,239.116z"/>
<path style="fill:#1D1D1F;" d="M263.571,270.971l-21.144-21.144c-9.659-9.659-25.321-9.659-34.981,0
	c-9.659,9.659-9.659,25.321,0,34.981l21.144,21.144c9.659,9.659,25.321,9.659,34.981,0
	C273.23,296.292,273.23,280.631,263.571,270.971z"/>
<g>
</g>
<g>
</g>
<g>
</g>
<g>
</g>
<g>
</g>
<g>
</g>
<g>
</g>
<g>
</g>
<g>
</g>
<g>
</g>
<g>
</g>
<g>
</g>
<g>
</g>
<g>
</g>
<g>
</g>
</svg>
